_________________________  Visit us at _________________________
  
http://p2pdl.com  ____________________________  http://p2pdl.com


Stay 2005 BRRip 720p x264 AAC - PRiSTiNE [P2PDL]

Genre: Drama | Mystery | Thriller
Plot: This movie focuses on the attempts of a psychiatrist 
to prevent one of his patients from committing suicide 
while trying to maintain his own grip on reality.
Director: Marc Forster
Stars:  Ewan McGregor, Ryan Gosling, Kate Burton
Rated: Rated R for language and some disturbing images

Info: 
http://www.imdb.com/title/tt0371257/

General
Complete name                  : Stay 2005 BRRip 720p x264 AAC - PRiSTiNE.mp4
Format                         : MPEG-4
File size                      : 581 MiB
Duration                       : 1h 38mn
Overall bit rate mode          : Variable
Overall bit rate               : 822 Kbps

Video
Format                         : AVC
Format/Info                    : Advanced Video Codec
Format profile                 : High 10@L4.1
Bit rate                       : 739 Kbps
Width                          : 1 280 pixels
Height                         : 544 pixels
Display aspect ratio           : 2.35:1
Frame rate mode                : Constant
Frame rate                     : 23.976 fps
Bit depth                      : 10 bits
Stream size                    : 523 MiB (90%)
Writing library                : x264 core 130 r2273 b3065e6

Audio
Format                         : AAC
Format/Info                    : Advanced Audio Codec
Bit rate                       : 79.8 Kbps
Channel(s)                     : 2 channels
Channel positions              : Front: L R
Sampling rate                  : 48.0 KHz / 24.0 KHz
Stream size                    : 56.5 MiB (10%)
Language                       : English

Subtitle                       : Yes (English)
Source                         : 720p.BluRay.DTS.x264-CRiSC (Thanks)

Screenshots:
 
http://www.ultraimg.com/images/i0BYW.jpg 
http://www.ultraimg.com/images/I0Vs1.jpg 
http://www.ultraimg.com/images/Ie9kq.jpg 
http://www.ultraimg.com/images/FjIxf.jpg 
http://www.ultraimg.com/images/dqzGm.jpg

----------------------------------------------------------------------------------------------------


Encoded using revolutionary 10bit encoding, which enables us to provide you more crispier 
and sharper images at small sizes, just make sure you follow our instructions without a fault.
Recommend to you to use latest version of VLC player. Install K-Lite Codec Pack or shark007 codecs
in case of any kind of problem in playback (For non-VLC Media Player users). Alternatively, install
Core AVC codecs, the fastest decoder that there is coupled with Community Center Codec Pack and play
on Windows Media Player Classic. Check sample to be sure.
Enjoy!

Encoder Notes:Looking For Early Access To Anything You Can Provide DVDScr, R5, DVDR, BluRay, Direct
Audio, Music Releases and Seedboxes. We require dedicated servers, so as to do more 
and fast releases of movies.
If You Got anything to offer please contact us at "prg@hush.com".

Face book Fan Page:   
http://www.fb.me/p2pdl